<?xml version="1.0" encoding="utf-8"?>
<!-- Generator: Adobe Illustrator 26.0.3, SVG Export Plug-In . SVG Version: 6.00 Build 0)  -->
<svg version="1.1" id="Laag_1" xmlns="http://www.w3.org/2000/svg" xmlns:xlink="http://www.w3.org/1999/xlink" x="0px" y="0px"
	 width="141.3px" height="172.9px" viewBox="0 0 141.3 172.9" style="enable-background:new 0 0 141.3 172.9;" xml:space="preserve"
	>
<style type="text/css">
	.st0{fill:#D9A78C;}
	.st1{fill:#F1F2F2;}
	.st2{fill:#E6E7E8;}
	.st3{fill:#EAC0A7;}
	.st4{fill:#F2D7BC;}
	.st5{fill:#2F343A;}
	.st6{fill:#A0B2BE;}
	.st7{fill:#FFFFFF;}
</style>
<polygon class="st0" points="87.1,150.6 71.1,171 54.2,150.6 54.2,116.4 87.1,116.4 "/>
<path class="st1" d="M54.2,137.9c0,0-35.3,4.6-39.9,9.4c-5.5,5.7-10.9,10-14.3,25.6h70.7V169L54.2,137.9z"/>
<path class="st2" d="M87.1,137.9c0,0,35.3,4.6,39.9,9.4c4,4.2,12.4,16.8,14.3,25.6H70.7V169L87.1,137.9z"/>
<path class="st3" d="M70.7,13.2c16,0,41.2,9.1,41.2,51.6c0,24.6-8,40.7-11.5,45.1c-3.2,4.1-21.3,12.8-29.7,12.8V13.2z"/>
<path class="st3" d="M119.8,75c0.7-6.8-2.5-12.8-7.2-13.5s-9.1,4.4-9.8,11.1s2.5,12.8,7.2,13.5S119.2,81.8,119.8,75z"/>
<path class="st4" d="M70.7,13.2c-16,0-41.2,9.1-41.2,51.6c0,24.6,8,40.7,11.5,45.1c3.2,4.1,21.3,12.8,29.7,12.8V13.2z"/>
<path class="st4" d="M21.5,75c-0.7-6.8,2.5-12.8,7.2-13.5s9.1,4.4,9.8,11.1S36,85.5,31.3,86.1S22.2,81.8,21.5,75z"/>
<path class="st5" d="M34.9,75.7h2.8c0,0-1.8-11.1,3.4-14.7v-7.2c0,0-2-0.2-2-8.7s10.1-14.4,31.5-14.4V0c0,0-42.4,0.9-42.4,31.7v29.8
	c1.9-0.3,3.8,0.2,5.3,1.3C35.9,64.8,34.9,75.7,34.9,75.7z"/>
<path class="st5" d="M106.2,75.7h-2.9c0,0,1.8-11.1-3.4-14.7v-7.2c0,0,2-0.2,2-8.7S91.5,30.8,69.4,30.8V0c0,0,43.7-1,43.7,29.8v31.7
	c-1.9-0.3-3.9,0.2-5.5,1.3C105.2,64.9,106.2,75.7,106.2,75.7z"/>
<polygon class="st6" points="70.7,169 59.5,141.1 55.4,158.3 "/>
<polygon class="st7" points="53.8,134 59.6,141.6 55.4,158.3 46.3,146.1 "/>
<polygon class="st6" points="70.7,169 80.8,140.6 86,158.3 "/>
<polygon class="st7" points="87.6,134 80.7,141.2 86,158.3 95.8,146.1 "/>
<path class="st7" d="M70.7,104.5c7.4,0,13.5-2.5,13.5-5.5h-27C57.2,102,63.2,104.5,70.7,104.5z"/>
</svg>
