<svg xmlns="http://www.w3.org/2000/svg" viewBox="0 0 576.45 472.04"><defs><style>.a{fill:#1b1464;}.b{fill:#29abe2;}</style></defs><path class="a" d="M707.69,232.15H659.82V140.76q0-12.24-12.24-12.24-11.7,0-11.7,12.24v91.39H587.46V140.76q0-12.24-12.51-12.24-11.41,0-11.42,12.24v91.39H515.38v-148h145q24.48,0,35.9,11t11.43,32.5Z" transform="translate(-413.2 -84.18)"/><path class="a" d="M727.54,84.18h48.15v87.59q0,12.51,12.24,12.51,12,0,12-12.51V84.18H848V280.3H799.62V232.15h-25q-22.59,0-34.82-11.83t-12.24-32Z" transform="translate(-413.2 -84.18)"/><path class="b" d="M619.35,514.22q0,17.85-10.5,29.93t-29.4,12.07a46.93,46.93,0,0,1-20.65-4.72,38.5,38.5,0,0,1-16.1-14.88l-52.5-86.1c-1.4-2.56-3.85-3.85-7.35-3.85a9.63,9.63,0,0,0-6.83,2.45q-2.62,2.46-2.62,7v95.2H413.2V340.62q0-17.85,10.15-29.57t30.1-11.73a49.69,49.69,0,0,1,20.82,4.38q9.63,4.38,15.93,14.87l53.2,87.85a8,8,0,0,0,7.35,4.2,9.27,9.27,0,0,0,6-2.27c1.86-1.52,2.8-3.79,2.8-6.83V303.87h59.85Z" transform="translate(-413.2 -84.18)"/><path class="b" d="M800.29,468.72h-70q-6.3,0-8.92,3.33T718.74,481v70.35h-72.1V303.87h154.7v72.45H726.09q-12.6,0-12.6,15.05,0,16.11,12.6,16.1h74.2Z" transform="translate(-413.2 -84.18)"/><path class="b" d="M989.64,376.32h-42.7q-7.35,0-7.35,7.35V551.32H867.84V383.67q0-7.35-7-7.35h-42.7V303.87h171.5Z" transform="translate(-413.2 -84.18)"/></svg>