<svg xmlns="http://www.w3.org/2000/svg" viewBox="0 0 417.97 256.9"><defs><style>.a{fill:#1b1464;}.b{fill:#29abe2;}</style></defs><path class="a" d="M192.3,251.83H144.43V160.44q0-12.24-12.24-12.24-11.7,0-11.69,12.24v91.39H72.08V160.44q0-12.24-12.51-12.24-11.43,0-11.43,12.24v91.39H0v-148H145q24.48,0,35.9,11t11.42,32.5Z"/><path class="b" d="M418,214.9q0,17.85-10.5,29.93T378.06,256.9a46.83,46.83,0,0,1-20.65-4.73,38.47,38.47,0,0,1-16.1-14.87l-52.5-86.1c-1.4-2.57-3.84-3.85-7.34-3.85a9.61,9.61,0,0,0-6.83,2.45,9.12,9.12,0,0,0-2.63,7V252h-60.2V41.3q0-17.85,10.15-29.57T252.06,0a49.7,49.7,0,0,1,20.83,4.38q9.63,4.38,15.92,14.87L342,107.1a8,8,0,0,0,7.35,4.2,9.3,9.3,0,0,0,5.95-2.27c1.87-1.52,2.8-3.79,2.8-6.83V4.55H418Z"/></svg>