<svg xmlns="http://www.w3.org/2000/svg" viewBox="0 0 200 200.1"><defs><style>.a{fill:#00bfd8;}.b{fill:#28170d;}.c{fill:#9e796c;}.d{fill:#997467;}.e{fill:#9b7362;}.f{fill:#fff200;}.g{fill:#f8a41d;}.h{fill:#f98e1c;}.i{fill:#fff;}</style></defs><rect class="a" width="200" height="200"/><path class="b" d="M100.2,200.1H60.1s-18.5-17.9-9.3-44.4,17.3-37,17.9-65.4h31.5Z" transform="translate(-0.2 -0.1)"/><path class="b" d="M99.2,200.1h40.1s18.5-17.9,9.3-44.4-17.3-37-17.9-65.4H99.2Z" transform="translate(-0.2 -0.1)"/><circle class="b" cx="100" cy="78.2" r="49.1"/><polygon class="c" points="116.4 183.3 99.8 199.9 83.6 183.3 83.6 147.3 116.4 147.3 116.4 183.3"/><path class="c" d="M100.2,47.5C84.3,47.5,59,56.6,59,99.1c0,24.5,9.6,36.1,13.1,40.5s19.7,17.3,28.1,17.3Z" transform="translate(-0.2 -0.1)"/><path class="c" d="M51.1,109.2c-.7-6.8,2.5-12.8,7.2-13.5s9.1,4.4,9.8,11.2-2.5,12.8-7.2,13.4S51.8,116,51.1,109.2Z" transform="translate(-0.2 -0.1)"/><path class="d" d="M100.1,47.5c15.9,0,41.1,9.1,41.1,51.6,0,24.5-9.5,36.1-13,40.5s-19.7,17.3-28.1,17.3Z" transform="translate(-0.2 -0.1)"/><path class="e" d="M149.3,109.2c.7-6.8-2.5-12.8-7.2-13.5s-9.1,4.4-9.8,11.2,2.5,12.8,7.2,13.4S148.6,116,149.3,109.2Z" transform="translate(-0.2 -0.1)"/><path class="b" d="M99.7,37.2H97.2s-26.9,2-34.4,37.1c-3.6,2.7-10.2,13.2-1.5,24.9,1.2-9.9,4.8-17.1,11.1-19.8C83.5,74.4,88.1,78.9,101,69c7.5-5.8,10.2-17.4,8.6-23.9A12,12,0,0,0,99.7,37.2Z" transform="translate(-0.2 -0.1)"/><path class="b" d="M107.9,47s-9.7,36.2,32.7,51.4C150.7,65.2,132.2,43.6,107.9,47Z" transform="translate(-0.2 -0.1)"/><rect class="f" x="57.7" y="117" width="3.7" height="3.74" transform="translate(-66.8 76.9) rotate(-45)"/><rect class="f" x="139.5" y="117" width="3.7" height="3.74" transform="translate(-42.8 134.7) rotate(-45)"/><path class="g" d="M100,200V185.1s-12.3-3-15-12.9a35.7,35.7,0,0,1-1.2-8.6S57,172.6,51,182c-5,14.8-6.3,18-6.3,18Z" transform="translate(-0.2 -0.1)"/><path class="h" d="M100,200V185.1s12.3-3,15-12.9a35.7,35.7,0,0,0,1.2-8.6s26.8,9,32.8,18.4c5,14.8,6.3,18,6.3,18Z" transform="translate(-0.2 -0.1)"/><path class="i" d="M100.2,142c6.2,0,11.3-3.9,11.3-8.6H89C89,138.1,94,142,100.2,142Z" transform="translate(-0.2 -0.1)"/></svg>