<?xml version="1.0" encoding="utf-8"?>
<!-- Generator: Adobe Illustrator 26.0.3, SVG Export Plug-In . SVG Version: 6.00 Build 0)  -->
<svg version="1.1" id="Laag_1" xmlns="http://www.w3.org/2000/svg" xmlns:xlink="http://www.w3.org/1999/xlink" x="0px" y="0px"
	 width="110.7px" height="171px" viewBox="0 0 110.7 171" style="enable-background:new 0 0 110.7 171;" xml:space="preserve">
<style type="text/css">
	.st0{fill:#28170D;}
	.st1{fill:#9E796C;}
	.st2{fill:#997467;}
	.st3{fill:#9B7362;}
	.st4{fill:#FFF200;}
	.st5{fill:#F8A41D;}
	.st6{fill:#F98E1C;}
	.st7{fill:#FFFFFF;}
</style>
<path class="st0" d="M55.5,171H15.4c0,0-18.5-17.9-9.3-44.4s17.3-37,17.9-65.4h31.5L55.5,171z"/>
<path class="st0" d="M54.5,171h40.1c0,0,18.5-17.9,9.3-44.4S86.6,89.5,86,61.1H54.5V171z"/>
<circle class="st0" cx="55.5" cy="49.1" r="49.1"/>
<polygon class="st1" points="72,154.2 55.3,170.9 39.1,154.2 39.1,118.2 72,118.2 "/>
<path class="st1" d="M55.6,18.4c-15.9,0-41.2,9.1-41.2,51.5c0,24.5,9.6,36.1,13.1,40.5c3.2,4.1,19.7,17.3,28.1,17.3L55.6,18.4z"/>
<path class="st1" d="M6.4,80C5.7,73.3,9,67.2,13.7,66.6s9.1,4.3,9.8,11.1s-2.5,12.8-7.2,13.4S7.1,86.8,6.4,80z"/>
<path class="st2" d="M55.4,18.4c15.9,0,41.2,9.1,41.2,51.5c0,24.5-9.6,36.1-13,40.5c-3.2,4.1-19.7,17.3-28.1,17.3L55.4,18.4z"/>
<path class="st3" d="M104.6,80c0.7-6.8-2.5-12.8-7.2-13.5s-9.1,4.3-9.8,11.1s2.5,12.8,7.2,13.4S103.9,86.8,104.6,80z"/>
<path class="st0" d="M55,8.1c-0.8-0.1-1.6-0.2-2.4-0.2c0,0-26.9,2-34.4,37.1C14.6,47.7,8,58.2,16.7,69.9c1.2-9.9,4.8-17.1,11.1-19.8
	c11.1-4.8,15.7-0.3,28.6-10.3c7.5-5.8,10.2-17.4,8.6-23.9C63.4,11.7,59.5,8.6,55,8.1z"/>
<path class="st0" d="M63.2,17.9c0,0-9.7,36.2,32.7,51.4C106.1,36.1,87.5,14.4,63.2,17.9z"/>
<rect x="13.1" y="87.8" transform="matrix(0.707 -0.7072 0.7072 0.707 -59.0582 36.8441)" class="st4" width="3.7" height="3.7"/>
<rect x="94.8" y="87.8" transform="matrix(0.707 -0.7072 0.7072 0.707 -35.1052 94.6713)" class="st4" width="3.7" height="3.7"/>
<path class="st5" d="M55.6,171.2v-14.9c0,0-12.2-3-15-13c-0.8-2.8-1.2-5.7-1.3-8.6c0,0-26.7,9.1-32.7,18.5c-5,14.8-6.3,18-6.3,18
	H55.6z"/>
<path class="st6" d="M55.6,171.2v-14.9c0,0,12.2-3,15-13c0.8-2.8,1.2-5.7,1.3-8.6c0,0,26.7,9.1,32.7,18.5c5,14.8,6.3,18,6.3,18H55.6
	z"/>
<path class="st7" d="M55.5,112.8c6.2,0,11.2-3.8,11.2-8.5H44.3C44.3,109,49.3,112.8,55.5,112.8z"/>
</svg>
