<svg xmlns="http://www.w3.org/2000/svg" viewBox="0 0 200 200.07"><defs><style>.a{fill:#00bfd8;}.b{fill:#28170d;}.c{fill:#9e796c;}.d{fill:#997467;}.e{fill:#9b7362;}.f{fill:#fff200;}.g{fill:#f8a41d;}.h{fill:#f98e1c;}.i{fill:#fff;}</style></defs><rect class="a" width="200" height="200"/><path class="b" d="M100.21,200.13H60.09s-18.52-17.89-9.26-44.44,17.28-37,17.9-65.43h31.48Z" transform="translate(-0.21 -0.07)"/><path class="b" d="M99.17,200.13h40.12s18.52-17.89,9.26-44.44-17.28-37-17.9-65.43H99.17Z" transform="translate(-0.21 -0.07)"/><circle class="b" cx="100" cy="78.17" r="49.08"/><polygon class="c" points="116.42 183.28 99.79 199.93 83.58 183.28 83.58 147.27 116.42 147.27 116.42 183.28"/><path class="c" d="M100.21,47.53C84.26,47.53,59,56.59,59,99.07c0,24.53,9.56,36.09,13.05,40.54,3.2,4.09,19.66,17.31,28.12,17.31Z" transform="translate(-0.21 -0.07)"/><path class="c" d="M51.11,109.2c-.7-6.79,2.53-12.81,7.22-13.46s9.07,4.34,9.77,11.13-2.53,12.81-7.22,13.45S51.81,116,51.11,109.2Z" transform="translate(-0.21 -0.07)"/><path class="d" d="M100.08,47.53c15.94,0,41.16,9.06,41.16,51.54,0,24.53-9.56,36.09-13,40.54-3.21,4.09-19.66,17.31-28.12,17.31Z" transform="translate(-0.21 -0.07)"/><path class="e" d="M149.31,109.2c.7-6.79-2.54-12.81-7.23-13.46s-9.06,4.34-9.77,11.13,2.54,12.81,7.23,13.45S148.6,116,149.31,109.2Z" transform="translate(-0.21 -0.07)"/><path class="b" d="M99.67,37.24a19.68,19.68,0,0,0-2.42-.17s-26.94,2-34.43,37.1c-3.6,2.7-10.2,13.19-1.5,24.88,1.2-9.89,4.82-17.06,11.09-19.79C83.54,74.42,88.12,78.92,101,69c7.53-5.78,10.24-17.4,8.57-23.89A11.87,11.87,0,0,0,99.67,37.24Z" transform="translate(-0.21 -0.07)"/><path class="b" d="M107.88,47S98.17,83.2,140.56,98.37C150.72,65.21,132.16,43.59,107.88,47Z" transform="translate(-0.21 -0.07)"/><rect class="f" x="57.74" y="116.99" width="3.74" height="3.74" transform="translate(-66.8 76.91) rotate(-45.01)"/><rect class="f" x="139.5" y="116.99" width="3.74" height="3.74" transform="translate(-42.85 134.73) rotate(-45.01)"/><path class="g" d="M100,200V185.14s-12.25-3-15-13a35.34,35.34,0,0,1-1.27-8.6S57,172.62,51,182c-5,14.82-6.34,18-6.34,18Z" transform="translate(-0.21 -0.07)"/><path class="h" d="M100,200V185.14s12.25-3,15-13a34.78,34.78,0,0,0,1.26-8.6S143,172.63,149,182c5,14.82,6.34,18,6.34,18Z" transform="translate(-0.21 -0.07)"/><path class="i" d="M100.21,142c6.21,0,11.25-3.82,11.25-8.53H89C89,138.14,94,142,100.21,142Z" transform="translate(-0.21 -0.07)"/></svg>