<?xml version="1.0" encoding="utf-8"?>
<!-- Generator: Adobe Illustrator 26.0.3, SVG Export Plug-In . SVG Version: 6.00 Build 0)  -->
<svg version="1.1" id="Layer_1" xmlns="http://www.w3.org/2000/svg" xmlns:xlink="http://www.w3.org/1999/xlink" x="0px" y="0px"
	 width="29.3px" height="29.4px" viewBox="0 0 29.3 29.4" style="enable-background:new 0 0 29.3 29.4;" xml:space="preserve">
<style type="text/css">
	.st0{display:none;fill:#1E1A6D;}
	.st1{display:none;fill:url(#SVGID_1_);}
	.st2{display:none;fill:url(#SVGID_00000048476132015578195970000002161584433803887233_);}
	.st3{display:none;fill:url(#SVGID_00000107547085940949147200000013228721689093253506_);}
	.st4{fill:#FFFFFF;}
</style>
<path class="st0" d="M27,15.2c0,6.6-5.4,12-12,12s-12-5.4-12-12s5.4-12,12-12C21.6,3.2,27,8.6,27,15.2z"/>
<radialGradient id="SVGID_1_" cx="-1124.988" cy="64.9675" r="1" gradientTransform="matrix(10.5247 0 0 10.5388 11858.6523 -669.7886)" gradientUnits="userSpaceOnUse">
	<stop  offset="0.31" style="stop-color:#1C1564"/>
	<stop  offset="0.32" style="stop-color:#1C1666"/>
	<stop  offset="0.63" style="stop-color:#262E97"/>
	<stop  offset="0.87" style="stop-color:#2C3CB6"/>
	<stop  offset="1" style="stop-color:#2E42C1"/>
</radialGradient>
<path class="st1" d="M22.9,24c1.2-1.4,1.9-3.2,1.9-5.1c0-4.2-3.3-7.6-7.3-7.6c-1.5,0-2.9,0.4-4.1,1.3c0,0,1.9-3,8-2s7.2,5.7,6.9,9.4
	c-0.9,2.3-2.3,4.3-4.1,5.8L22.9,24z"/>
<radialGradient id="SVGID_00000096759656632139669840000014344769092912932745_" cx="-1139.999" cy="64.4343" r="1" gradientTransform="matrix(12.0586 0 0 10.6257 13759.3096 -665.9731)" gradientUnits="userSpaceOnUse">
	<stop  offset="0.4" style="stop-color:#1C1564"/>
	<stop  offset="0.41" style="stop-color:#1C1666"/>
	<stop  offset="0.68" style="stop-color:#262E97"/>
	<stop  offset="0.89" style="stop-color:#2C3CB6"/>
	<stop  offset="1" style="stop-color:#2E42C1"/>
</radialGradient>
<path style="display:none;fill:url(#SVGID_00000096759656632139669840000014344769092912932745_);" d="M24.3,25.8L24.3,25.8
	c-0.3,0.2-0.6,0.5-0.9,0.7c-2,1.5-4.4,2.5-6.9,2.8c-1.1,0.1-2.2,0.2-3.2,0.1c-1.4-0.1-3-1.1-4.3-1.6c-2.3-0.9-3.9-2-5.5-4
	s-2.6-4-3-6.5L5.7,18c0.3,0.6,0.6,2.1,1,2.6c2.5,3.4,6.6,4.5,10.4,3.4c0.6-0.2,1.1-0.5,1.5-0.9s0.8-0.9,1-1.4S20,20.6,20,20
	s-0.1-1.2-0.4-1.7s-0.6-1-1.1-1.4s-1-0.7-1.6-0.8c-0.6-0.2-1.2-0.2-1.8-0.1c-0.6,0.1-1.2,0.3-1.7,0.7c0,0,2.9-2.3,6.7-1
	c0,0,3.7,1.2,4.9,5.1C26.3,24.5,24.3,25.8,24.3,25.8z"/>
<linearGradient id="SVGID_00000106118255795778809010000001693337710023824567_" gradientUnits="userSpaceOnUse" x1="19.7555" y1="691.7303" x2="27.8371" y2="704.6617" gradientTransform="matrix(1 0 0 1 0 -687.5596)">
	<stop  offset="0" style="stop-color:#1B1461"/>
	<stop  offset="1" style="stop-color:#2E42C1"/>
</linearGradient>
<path style="display:none;fill:url(#SVGID_00000106118255795778809010000001693337710023824567_);" d="M28.4,19.9
	c0.9-2.3,1.2-4.8,0.8-7.2c-0.3-2.4-1.3-4.8-2.7-6.7c0-0.1-0.1-0.1-0.1-0.2l-2.5-1.3L15,2.9l-0.5,1.9c1.6-0.1,3.2,0.3,4.6,1
	s2.7,1.7,3.6,3c0.5,0.7,0.9,1.5,1.3,2.3l0.6,0.3l3.3,3.3l0.8,3.5l-0.1,1.6L28.4,19.9z"/>
<path class="st4" d="M28.4,19.9c0.5-1.5,0.6-3,0.3-4.6c-0.2-1.5-0.8-3-1.7-4.2c-0.9-1.3-2.1-2.3-3.5-3C22.1,7.4,20.6,7,19,7
	c-1.5,0-3.1,0.3-4.5,1s-2.6,1.7-3.6,2.9C10,12.1,9.4,13.5,9.1,15c-0.3,1.5-0.2,3.1,0.2,4.6c0.2-2.4,1.4-4.6,3.2-6.2s4.1-2.5,6.6-2.4
	s4.7,1,6.5,2.7S28.2,17.5,28.4,19.9L28.4,19.9z"/>
<path class="st4" d="M24.3,25.8c0.7-0.7,1.2-1.5,1.6-2.4s0.5-1.9,0.5-2.8c0-1-0.3-1.9-0.7-2.8c-0.4-0.9-1-1.7-1.7-2.3
	c-0.7-0.6-1.6-1.1-2.5-1.4c-0.9-0.3-1.9-0.4-2.9-0.3c-1,0.1-1.9,0.4-2.7,0.9s-1.6,1.1-2.2,1.9c1.3-0.9,2.9-1.3,4.5-1.2
	s3.1,0.7,4.3,1.8s2,2.5,2.4,4C25.1,22.7,24.9,24.3,24.3,25.8L24.3,25.8z"/>
<path class="st4" d="M10.9,7c2.5-1.9,5.7-2.8,8.8-2.5c3.2,0.3,6.1,1.7,8.3,4c-1.1-2.3-2.8-4.4-4.9-5.8C21,1.2,18.5,0.3,16,0.1
	c-2.6-0.2-5.2,0.2-7.5,1.3C6.1,2.5,4.1,4.2,2.6,6.3S0.2,10.9,0,13.5C-0.2,16,0.3,18.6,1.4,21c1.1,2.3,2.8,4.3,4.9,5.8
	s4.6,2.3,7.2,2.6c-2.1-0.9-3.9-2.3-5.3-4.1c-1.4-1.8-2.2-4-2.5-6.2c-0.3-2.3,0.1-4.6,1-6.7C7.6,10.2,9,8.4,10.9,7L10.9,7z"/>
</svg>
